<?xml version="1.0"?>
<svg xmlns="http://www.w3.org/2000/svg" viewBox="0 0 64 64" preserveAspectRatio="xMidYMid meet">
  <path d="M57,27A25,25,0,1,0,17.017,47H12v6H7v9H57V53H52V47H46.983A24.991,24.991,0,0,0,57,27ZM55,55v5H53V58H51v2H49V58H47v2H17V58H15v2H13V58H11v2H9V55Zm-5-2H14V49H50Zm-6.675-6H20.675a23,23,0,1,1,22.65,0Z"/>
  <path d="M40,25a5.006,5.006,0,0,1,5-5,1,1,0,0,0,0-2,5.006,5.006,0,0,1-5-5,1,1,0,0,0-2,0,5.006,5.006,0,0,1-5,5,1,1,0,0,0,0,2,5.006,5.006,0,0,1,5,5,1,1,0,0,0,2,0Zm-3.413-6A7.036,7.036,0,0,0,39,16.587,7.036,7.036,0,0,0,41.413,19,7.036,7.036,0,0,0,39,21.413,7.036,7.036,0,0,0,36.587,19Z"/>
  <path d="M51,30a1,1,0,0,0-1-1,4,4,0,0,1-4-4,1,1,0,0,0-2,0,4,4,0,0,1-4,4,1,1,0,0,0,0,2,4,4,0,0,1,4,4,1,1,0,0,0,2,0,4,4,0,0,1,4-4A1,1,0,0,0,51,30Zm-6,1.69A6.044,6.044,0,0,0,43.31,30,6.044,6.044,0,0,0,45,28.31,6.044,6.044,0,0,0,46.69,30,6.044,6.044,0,0,0,45,31.69Z"/>
  <path d="M27,32a4,4,0,0,1-4-4,1,1,0,0,0-2,0,4,4,0,0,1-4,4,1,1,0,0,0,0,2,4,4,0,0,1,4,4,1,1,0,0,0,2,0,4,4,0,0,1,4-4,1,1,0,0,0,0-2Zm-5,2.69A6.044,6.044,0,0,0,20.31,33,6.044,6.044,0,0,0,22,31.31,6.044,6.044,0,0,0,23.69,33,6.044,6.044,0,0,0,22,34.69Z"/>
  <path d="M32,8l0-2c-.157,0-15.819.214-20.964,18.732l1.928.536C17.689,8.254,31.42,8,32,8Z"/>
  <rect x="34" y="6" width="2" height="2"/>
  <rect x="32" y="24" width="2" height="2"/>
  <rect x="48" y="21" width="2" height="2"/>
  <rect x="49" y="34" width="2" height="2"/>
</svg>
